<svg width="25" height="24" viewBox="0 0 25 24" fill="none" xmlns="http://www.w3.org/2000/svg">
<path d="M22.4531 13C22.4531 13.8438 21.7969 14.5 21 14.5H6.60938L11.5312 19.4688C12.1406 20.0312 12.1406 21.0156 11.5312 21.5781C11.25 21.8594 10.875 22 10.5 22C10.0781 22 9.70312 21.8594 9.42188 21.5781L1.92188 14.0781C1.3125 13.5156 1.3125 12.5312 1.92188 11.9688L9.42188 4.46875C9.98438 3.85938 10.9688 3.85938 11.5312 4.46875C12.1406 5.03125 12.1406 6.01562 11.5312 6.57812L6.60938 11.5H21C21.7969 11.5 22.4531 12.2031 22.4531 13Z" fill="white"/>
</svg>
